<svg xmlns="http://www.w3.org/2000/svg" version="1.1" xmlns:xlink="http://www.w3.org/1999/xlink" xmlns:svgjs="http://svgjs.dev/svgjs" width="1500" height="1500" viewBox="0 0 1500 1500"><rect width="1500" height="1500" fill="#000000"></rect><g transform="matrix(0.6666666666666666,0,0,0.6666666666666666,249.39393939393938,623.089406543901)"><svg viewBox="0 0 396 101" data-background-color="#ffffff" preserveAspectRatio="xMidYMid meet" height="382" width="1500" xmlns="http://www.w3.org/2000/svg" xmlns:xlink="http://www.w3.org/1999/xlink"><g id="tight-bounds" transform="matrix(1,0,0,1,0.2400000000000091,-0.16765730733246187)"><svg viewBox="0 0 395.52 101.33531461466492" height="101.33531461466492" width="395.52"><g><svg viewBox="0 0 628.5568236597844 161.0411697986416" height="101.33531461466492" width="395.52"><g><rect width="6.897786585089813" height="139.8331430957814" x="208.08200412943327" y="10.604013351430098" fill="#ffffff" opacity="1" stroke-width="0" stroke="transparent" fill-opacity="1" class="rect-qz-0" data-fill-palette-color="primary" rx="1%" id="qz-0" data-palette-color="#0745b3"></rect></g><g transform="matrix(1,0,0,1,233.03682365978437,22.25677527607855)"><svg viewBox="0 0 395.52000000000004 116.52761924648449" height="116.52761924648449" width="395.52000000000004"><g id="textblocktransform"><svg viewBox="0 0 395.52000000000004 116.52761924648449" height="116.52761924648449" width="395.52000000000004" id="textblock"><g><svg viewBox="0 0 395.52000000000004 76.48821966341895" height="76.48821966341895" width="395.52000000000004"><g transform="matrix(1,0,0,1,0,0)"><svg width="395.52000000000004" viewBox="2.5 -32.15 169.33 32.75" height="76.48821966341895" data-palette-color="#0745b3"><path d="M12.4 0.6L12.4 0.6Q9.1 0.6 5.8-1.2L5.8-1.2Q4.7-1.75 4.3-1.75L4.3-1.75Q3.55-1.75 3.5-0.7L3.5-0.7 3.45 0 2.5 0 2.5-8.35 3.4-8.35Q3.85-4.5 6.28-2.68 8.7-0.85 12.03-0.85 15.35-0.85 17.07-2.65 18.8-4.45 18.8-6.9L18.8-6.9Q18.8-10.8 14.3-12.8L14.3-12.8 8.35-15.45Q5.65-16.65 4.3-18.73 2.95-20.8 2.95-23.2L2.95-23.2Q2.95-26.85 5.4-29.48 7.85-32.1 12.45-32.1L12.45-32.1Q15.15-32.1 18-30.3L18-30.3Q18.95-29.75 19.3-29.75L19.3-29.75Q19.95-29.75 20-30.8L20-30.8 20.05-31.8 21-31.8 21-23.15 20.1-23.15Q19.7-27 17.63-28.83 15.55-30.65 12.58-30.65 9.6-30.65 7.98-29.03 6.35-27.4 6.35-25.33 6.35-23.25 7.48-21.6 8.6-19.95 10.8-19L10.8-19 16.8-16.35Q19.8-15 21.33-12.83 22.85-10.65 22.85-8.15L22.85-8.15Q22.85-4.6 20-2 17.15 0.6 12.4 0.6ZM27.67-0.23Q26.85-1.05 26.85-2.2 26.85-3.35 27.67-4.17 28.5-5 29.65-5 30.8-5 31.62-4.17 32.45-3.35 32.45-2.2 32.45-1.05 31.62-0.23 30.8 0.6 29.65 0.6 28.5 0.6 27.67-0.23ZM39.25-1.6L39.25-1.6 39.25-30Q39.25-30.6 38.55-30.6L38.55-30.6 36.2-30.6 36.2-31.5 46.4-31.5 46.4-30.6 44.05-30.6Q43.35-30.6 43.35-30L43.35-30 43.35-1.6Q43.35-0.9 44.05-0.9L44.05-0.9 46.4-0.9 46.4 0 36.2 0 36.2-0.9 38.55-0.9Q39.25-0.9 39.25-1.6ZM50.97-0.23Q50.14-1.05 50.14-2.2 50.14-3.35 50.97-4.17 51.79-5 52.94-5 54.09-5 54.92-4.17 55.74-3.35 55.74-2.2 55.74-1.05 54.92-0.23 54.09 0.6 52.94 0.6 51.79 0.6 50.97-0.23ZM83.41-32.15Q86.89-32.15 88.84-30.38 90.79-28.6 90.79-26.05 90.79-23.5 89.04-21.2 87.29-18.9 84.09-17.7L84.09-17.7 90.34-8.9 92.94-15.55 90.39-15.55 90.39-16.45 98.04-16.45 98.04-15.55 94.89-15.55Q94.44-15.55 94.19-14.85L94.19-14.85 91.29-7.6 95.84-1.3Q96.09-0.9 96.54-0.9L96.54-0.9 98.34-0.9 98.34 0 95.54 0Q93.09 0 91.89 0.3L91.89 0.3 89.19-3.55Q86.19 0.6 80.99 0.6L80.99 0.6Q76.69 0.6 74.21-2.02 71.74-4.65 71.74-7.98 71.74-11.3 73.76-13.75 75.79-16.2 79.64-17.35L79.64-17.35 78.09-19.6Q75.99-22.55 75.99-25.5 75.99-28.45 77.96-30.3 79.94-32.15 83.41-32.15ZM81.99-1.35L81.99-1.35Q85.89-1.35 88.39-4.75L88.39-4.75 80.44-16.2Q75.94-13.8 75.94-8.35L75.94-8.35Q75.94-4.95 77.69-3.15 79.44-1.35 81.99-1.35ZM83.34-30.85L83.34-30.85Q79.14-30.85 79.14-26.7L79.14-26.7Q79.14-24.65 80.89-22.2L80.89-22.2 83.34-18.7Q85.39-19.7 86.49-21.63 87.59-23.55 87.59-25.73 87.59-27.9 86.46-29.38 85.34-30.85 83.34-30.85ZM137.73 0L136.78 0 136.73-0.7Q136.68-1.75 135.93-1.75L135.93-1.75Q135.53-1.75 134.48-1.2L134.48-1.2Q131.23 0.6 127.93 0.6L127.93 0.6Q121.63 0.6 117.61-3.75 113.58-8.1 113.58-15.73 113.58-23.35 117.56-27.73 121.53-32.1 127.93-32.1L127.93-32.1Q131.18-32.1 134.43-30.45L134.43-30.45Q135.48-29.9 135.93-29.9L135.93-29.9Q136.68-29.9 136.73-30.95L136.73-30.95 136.78-31.8 137.73-31.8 137.73-23.15 136.83-23.15Q136.38-27 133.96-28.83 131.53-30.65 127.93-30.65L127.93-30.65Q123.38-30.65 120.61-26.65 117.83-22.65 117.83-15.7 117.83-8.75 120.63-4.8 123.43-0.85 127.93-0.85L127.93-0.85Q131.53-0.85 133.96-2.68 136.38-4.5 136.83-8.35L136.83-8.35 137.73-8.35 137.73 0ZM144.78-2.45Q141.98-5.5 141.98-10.8 141.98-16.1 144.78-19.15 147.58-22.2 152.08-22.2 156.58-22.2 159.41-19.15 162.23-16.1 162.23-10.8 162.23-5.5 159.41-2.45 156.58 0.6 152.08 0.6 147.58 0.6 144.78-2.45ZM147.58-18.32Q145.78-15.55 145.78-10.8 145.78-6.05 147.58-3.28 149.38-0.5 152.08-0.5 154.78-0.5 156.61-3.28 158.43-6.05 158.43-10.8 158.43-15.55 156.61-18.32 154.78-21.1 152.08-21.1 149.38-21.1 147.58-18.32ZM167.05-0.23Q166.23-1.05 166.23-2.2 166.23-3.35 167.05-4.17 167.88-5 169.03-5 170.18-5 171-4.17 171.83-3.35 171.83-2.2 171.83-1.05 171-0.23 170.18 0.6 169.03 0.6 167.88 0.6 167.05-0.23Z" opacity="1" transform="matrix(1,0,0,1,0,0)" fill="#ffffff" class="wordmark-text-0" data-fill-palette-color="primary" id="text-0"></path></svg></g></svg></g><g transform="matrix(1,0,0,1,0,94.54525260868024)"><svg viewBox="0 0 232.20979200000002 21.98236663780425" height="21.98236663780425" width="232.20979200000002"><g transform="matrix(1,0,0,1,0,0)"><svg width="232.20979200000002" viewBox="2.54 -33.89 471.38 44.63000000000001" height="21.98236663780425" data-palette-color="#0745b3"><path d="M17.97 0.44L17.97 0.44Q13.72 0.44 10.23-1.2 6.74-2.83 4.64-6.08 2.54-9.33 2.54-14.11L2.54-14.11Q2.54-17.19 3.61-19.9 4.69-22.61 6.76-24.68 8.84-26.76 11.82-27.93 14.79-29.1 18.6-29.1L18.6-29.1Q20.61-29.1 22.85-28.71 25.1-28.32 26.86-27.59L26.86-27.59 27.2-20.9 25-20.7 23.54-25.34Q22.61-25.98 21.09-26.29 19.58-26.61 18.16-26.61L18.16-26.61Q14.5-26.61 12.18-25.02 9.86-23.44 8.76-20.8 7.67-18.16 7.67-14.99L7.67-14.99Q7.67-10.84 9.11-7.96 10.55-5.08 13.01-3.61 15.48-2.15 18.46-2.15L18.46-2.15Q19.97-2.15 21.26-2.49 22.56-2.83 23.73-3.52L23.73-3.52 25.88-8.11 28.13-7.86 26.76-1.71Q25.05-0.88 22.78-0.22 20.51 0.44 17.97 0.44ZM41.79 0.39L41.79 0.39Q38.62 0.39 36.25-0.98 33.88-2.34 32.57-4.81 31.25-7.28 31.25-10.45L31.25-10.45Q31.25-13.77 32.69-16.21 34.13-18.65 36.59-20.02 39.06-21.39 41.99-21.39L41.99-21.39Q45.02-21.39 47.26-20.04 49.51-18.7 50.78-16.28 52.05-13.87 52.05-10.64L52.05-10.64Q52.05-7.57 50.68-5.05 49.31-2.54 46.99-1.07 44.68 0.39 41.79 0.39ZM42.28-1.9L42.28-1.9Q43.94-1.9 45.16-2.91 46.38-3.91 47.07-5.69 47.75-7.47 47.75-9.77L47.75-9.77Q47.75-13.96 46.02-16.58 44.28-19.19 41.45-19.19L41.45-19.19Q38.82-19.19 37.23-17.02 35.64-14.84 35.64-11.18L35.64-11.18Q35.64-8.45 36.5-6.35 37.35-4.25 38.86-3.08 40.38-1.9 42.28-1.9ZM65.47 0L55.61 0 55.51-1.76 58.54-2.49Q58.59-2.83 58.61-3.37 58.64-3.91 58.69-4.93 58.74-5.96 58.74-7.71L58.74-7.71 58.78-11.52Q58.78-12.55 58.74-13.62 58.69-14.7 58.59-15.65 58.49-16.6 58.39-17.19L58.39-17.19 55.27-17.87 55.27-19.48 61.81-21.29 62.64-20.51 62.4-17.87 62.54-17.82Q64.06-19.73 65.67-20.56 67.28-21.39 69.04-21.39L69.04-21.39Q70.75-21.39 72.36-20.46 73.97-19.53 75.02-17.63 76.07-15.72 76.07-12.74L76.07-12.74 76.12-7.57Q76.12-5.81 76.19-4.42 76.26-3.03 76.41-2.49L76.41-2.49 79.34-1.76 79.19 0 69.67 0 69.53-1.76 72.21-2.49Q72.26-2.88 72.31-3.47 72.36-4.05 72.38-4.98 72.41-5.91 72.41-7.23L72.41-7.23 72.36-12.6Q72.36-14.7 71.7-15.97 71.04-17.24 69.97-17.82 68.89-18.41 67.67-18.41L67.67-18.41Q66.21-18.41 64.86-17.68 63.52-16.94 62.5-15.38L62.5-15.38 62.5-8.06Q62.5-5.81 62.57-4.42 62.64-3.03 62.74-2.49L62.74-2.49 65.62-1.76 65.47 0ZM92.87 0L83.15 0 83-1.76 85.79-2.49Q85.83-2.88 85.86-3.47 85.88-4.05 85.93-4.98 85.98-5.91 85.98-7.23L85.98-7.23 85.98-12.55Q85.98-14.7 85.25-15.97 84.52-17.24 83.42-17.82 82.32-18.41 81.2-18.41L81.2-18.41Q79.49-18.41 78.1-17.58 76.7-16.75 75.58-15.04L75.58-15.04 74.65-16.85Q76.36-19.19 78.29-20.29 80.22-21.39 82.37-21.39L82.37-21.39Q84.42-21.39 86.08-20.41 87.74-19.43 88.72-17.58 89.69-15.72 89.69-13.09L89.69-13.09 89.69-7.57Q89.69-5.81 89.77-4.42 89.84-3.03 89.94-2.49L89.94-2.49 92.96-1.76 92.87 0ZM106.68 10.74L95.65 10.74 95.55 8.98 98.58 8.25Q98.58 8.01 98.6 7.42 98.63 6.84 98.65 5.83 98.67 4.83 98.72 3.47 98.77 2.1 98.77 0.29L98.77 0.29 98.87-11.77Q98.87-13.23 98.75-14.77 98.63-16.31 98.48-17.19L98.48-17.19 95.35-17.87 95.35-19.48 101.9-21.29 102.73-20.51 102.48-17.82 102.63-17.82Q104-19.58 105.63-20.48 107.27-21.39 109.17-21.39L109.17-21.39Q111.86-21.39 113.93-20.04 116.01-18.7 117.2-16.36 118.4-14.01 118.4-11.04L118.4-11.04Q118.4-7.76 116.94-5.2 115.47-2.64 112.96-1.15 110.44 0.34 107.27 0.34L107.27 0.34Q106.1 0.34 104.85 0.12 103.61-0.1 102.58-0.49L102.58-0.49 102.58 3.17Q102.58 5.03 102.65 6.32 102.73 7.62 102.78 8.25L102.78 8.25 106.78 8.89 106.68 10.74ZM107.41-2.05L107.41-2.05Q109.42-2.05 110.88-3 112.35-3.96 113.2-5.76 114.06-7.57 114.1-10.11L114.1-10.11Q114.15-12.45 113.32-14.26 112.49-16.06 111.08-17.11 109.66-18.16 107.81-18.16L107.81-18.16Q106.24-18.16 104.95-17.46 103.65-16.75 102.58-15.38L102.58-15.38 102.58-3.56Q103.51-2.83 104.8-2.44 106.1-2.05 107.41-2.05ZM132.22 0L121.82 0 121.72-1.81 124.89-2.49Q124.99-3.03 125.01-4.13 125.04-5.22 125.09-7.08 125.14-8.94 125.14-11.62L125.14-11.62 125.14-17.72Q125.14-19.53 125.11-21.48 125.09-23.44 125.06-25.2 125.04-26.95 124.99-28.2 124.94-29.44 124.94-29.83L124.94-29.83 121.33-30.32 121.23-31.88 128.21-33.89 129.14-33.2Q129.09-31.1 129.04-29.08 128.99-27.05 128.97-24.56 128.95-22.07 128.95-18.55L128.95-18.55 128.9-10.69Q128.9-7.81 128.97-5.49 129.04-3.17 129.14-2.49L129.14-2.49 132.31-1.81 132.22 0ZM145.69 0.39L145.69 0.39Q142.86 0.39 140.56-0.88 138.27-2.15 136.95-4.52 135.63-6.88 135.63-10.11L135.63-10.11Q135.63-13.57 137.05-16.11 138.46-18.65 140.76-20.04 143.05-21.44 145.69-21.39L145.69-21.39Q149.5-21.34 151.65-18.87 153.8-16.41 153.8-11.82L153.8-11.82 153.8-10.94 138.81-10.94 138.81-13.09 150.57-13.09 150.04-12.45 150.04-13.48Q150.04-16.26 148.79-17.8 147.55-19.34 145.3-19.34L145.3-19.34Q143.93-19.34 142.66-18.53 141.39-17.72 140.61-16.09 139.83-14.45 139.83-11.96L139.83-11.96 139.83-11.38Q139.83-7.37 141.81-5.13 143.79-2.88 146.91-2.88L146.91-2.88Q148.67-2.88 150.01-3.54 151.35-4.2 152.62-5.76L152.62-5.76 153.84-4.64Q152.48-2.1 150.38-0.85 148.28 0.39 145.69 0.39ZM171.52-4.25L172.4-3.03Q171.47-1.42 169.86-0.51 168.25 0.39 166.49 0.39L166.49 0.39Q163.56 0.39 161.63-1.42 159.7-3.22 159.7-6.84L159.7-6.84 159.85-18.51 156.43-18.51 156.43-19.53 162.73-25.24 163.66-25.24 163.56-19.63 163.51-7.62Q163.51-5.08 164.61-3.86 165.71-2.64 167.71-2.64L167.71-2.64Q168.83-2.64 169.78-3.1 170.74-3.56 171.52-4.25L171.52-4.25ZM170.93-18.51L161.8-18.51 161.8-20.95 170.93-20.95 170.93-18.51ZM183.87 0.39L183.87 0.39Q181.04 0.39 178.74-0.88 176.45-2.15 175.13-4.52 173.81-6.88 173.81-10.11L173.81-10.11Q173.81-13.57 175.23-16.11 176.64-18.65 178.94-20.04 181.23-21.44 183.87-21.39L183.87-21.39Q187.68-21.34 189.83-18.87 191.97-16.41 191.97-11.82L191.97-11.82 191.97-10.94 176.98-10.94 176.98-13.09 188.75-13.09 188.21-12.45 188.21-13.48Q188.21-16.26 186.97-17.8 185.72-19.34 183.48-19.34L183.48-19.34Q182.11-19.34 180.84-18.53 179.57-17.72 178.79-16.09 178.01-14.45 178.01-11.96L178.01-11.96 178.01-11.38Q178.01-7.37 179.99-5.13 181.96-2.88 185.09-2.88L185.09-2.88Q186.85-2.88 188.19-3.54 189.53-4.2 190.8-5.76L190.8-5.76 192.02-4.64Q190.66-2.1 188.56-0.85 186.46 0.39 183.87 0.39ZM228.4-28.86L228.4-28.86 229.47-20.95 227.32-20.7 225.27-26.22Q224.88-26.32 224.37-26.34 223.85-26.37 223.46-26.37L223.46-26.37 221.71-26.37Q221.22-26.37 220.39-26.37 219.56-26.37 218.87-26.32L218.87-26.32Q218.87-25.93 218.85-24.49 218.83-23.05 218.83-21.14 218.83-19.24 218.83-17.48L218.83-17.48 218.83-10.89Q218.83-7.81 218.87-5.54 218.92-3.27 218.92-2.54L218.92-2.54 223.07-1.95 222.93 0 210.48 0 210.38-1.95 214.48-2.54Q214.48-3.27 214.53-5.54 214.58-7.81 214.58-10.89L214.58-10.89 214.58-17.48Q214.58-19.24 214.58-21.14 214.58-23.05 214.58-24.49 214.58-25.93 214.53-26.32L214.53-26.32Q213.89-26.37 213.06-26.37 212.23-26.37 211.75-26.37L211.75-26.37 209.84-26.37Q209.45-26.37 208.99-26.34 208.52-26.32 208.08-26.22L208.08-26.22 206.08-20.65 203.88-20.95 204.96-28.86Q205.5-28.81 206.11-28.78 206.72-28.76 207.33-28.71 207.94-28.66 208.52-28.66 209.11-28.66 209.69-28.66L209.69-28.66 223.66-28.66Q224.2-28.66 224.81-28.66 225.42-28.66 226-28.71 226.59-28.76 227.2-28.78 227.81-28.81 228.4-28.86ZM238.16 0.39L238.16 0.39Q236.21 0.39 234.69-0.39 233.18-1.17 232.32-2.39 231.47-3.61 231.47-4.93L231.47-4.93Q231.47-6.54 232.52-7.62 233.57-8.69 236.06-9.52L236.06-9.52 243.48-12.01 243.48-14.5Q243.48-15.72 242.75-16.72 242.02-17.72 240.8-18.31 239.57-18.9 238.06-18.9L238.06-18.9Q236.84-18.9 236.4-18.38 235.96-17.87 235.86-16.36L235.86-16.36 235.77-14.31Q234.01-13.92 232.79-14.43 231.57-14.94 231.57-16.11L231.57-16.11Q231.57-16.94 232.3-17.77 233.03-18.6 234.2-19.36 235.38-20.12 236.72-20.65 238.06-21.19 239.38-21.39L239.38-21.39Q242.94-21.39 245.14-19.51 247.34-17.63 247.39-14.5L247.39-14.5 247.29-6.3Q247.29-5.42 247.36-4.52 247.44-3.61 247.58-3.17L247.58-3.17 250.71-2.59 250.71-1.07 248.31-0.2Q247.63 0.1 247.05 0.24 246.46 0.39 246.07 0.39L246.07 0.39Q244.56 0.39 244.12-1.32L244.12-1.32 243.58-3.22 244.31-3.22Q242.7-1.42 241.21-0.51 239.72 0.39 238.16 0.39ZM239.48-2.49L239.48-2.49Q240.6-2.49 241.6-3 242.6-3.52 243.48-4.59L243.48-4.59 243.48-9.72 238.01-8.25Q236.84-7.96 236.33-7.32 235.81-6.69 235.81-5.71L235.81-5.71Q235.81-4.49 236.91-3.49 238.01-2.49 239.48-2.49ZM274.44-1.76L274.34 0 265.4 0 265.3-1.76 267.6-2.49 262.77-8.98 261.5-10.5 255.44-18.51 253.15-19.24 253.24-21 261.98-21 262.13-19.24 260.08-18.51 264.18-12.94 265.45-11.38 272.14-2.49 274.44-1.76ZM264.18-12.94L268.28-18.51 266.23-19.24 266.38-21 273.31-21 273.46-19.24 271.16-18.51 265.45-11.38 262.77-8.98 258.08-2.49 260.37-1.76 260.28 0 253.05 0 252.95-1.76 255.25-2.49 261.5-10.5 264.18-12.94ZM295.57 0.44L295.57 0.44Q293.42 0.44 291.18-0.1 288.93-0.63 287.47-1.46L287.47-1.46 287.22-7.76 289.32-7.96 290.69-3.61Q291.86-2.83 293.3-2.42 294.74-2 296.31-2L296.31-2Q298.7-2 300.16-3.17 301.63-4.35 301.63-6.35L301.63-6.35Q301.63-8.06 300.6-9.2 299.58-10.35 297.94-11.21 296.31-12.06 294.47-12.87 292.64-13.67 291.03-14.72 289.42-15.77 288.37-17.31 287.32-18.85 287.32-21.14L287.32-21.14Q287.32-23.49 288.66-25.32 290.01-27.15 292.35-28.15 294.69-29.15 297.72-29.15L297.72-29.15Q298.99-29.15 300.19-29.03 301.38-28.91 302.41-28.64 303.43-28.37 304.26-28.03L304.26-28.03 304.66-21.92 302.56-21.73 301.19-25.83Q299.63-26.81 297.18-26.81L297.18-26.81Q294.69-26.81 293.2-25.59 291.72-24.37 291.72-22.41L291.72-22.41Q291.72-20.65 292.77-19.46 293.82-18.26 295.45-17.38 297.09-16.5 298.92-15.7 300.75-14.89 302.38-13.87 304.02-12.84 305.07-11.35 306.12-9.86 306.12-7.67L306.12-7.67Q306.12-5.32 304.75-3.49 303.39-1.66 301.02-0.61 298.65 0.44 295.57 0.44ZM320.52 0.39L320.52 0.39Q317.35 0.39 314.98-0.98 312.61-2.34 311.29-4.81 309.97-7.28 309.97-10.45L309.97-10.45Q309.97-13.77 311.42-16.21 312.86-18.65 315.32-20.02 317.79-21.39 320.72-21.39L320.72-21.39Q323.74-21.39 325.99-20.04 328.24-18.7 329.51-16.28 330.78-13.87 330.78-10.64L330.78-10.64Q330.78-7.57 329.41-5.05 328.04-2.54 325.72-1.07 323.4 0.39 320.52 0.39ZM321.01-1.9L321.01-1.9Q322.67-1.9 323.89-2.91 325.11-3.91 325.8-5.69 326.48-7.47 326.48-9.77L326.48-9.77Q326.48-13.96 324.75-16.58 323.01-19.19 320.18-19.19L320.18-19.19Q317.54-19.19 315.96-17.02 314.37-14.84 314.37-11.18L314.37-11.18Q314.37-8.45 315.22-6.35 316.08-4.25 317.59-3.08 319.11-1.9 321.01-1.9ZM344.54 0L334.14 0 334.04-1.81 337.22-2.49Q337.32-3.03 337.34-4.13 337.36-5.22 337.41-7.08 337.46-8.94 337.46-11.62L337.46-11.62 337.46-17.72Q337.46-19.53 337.44-21.48 337.41-23.44 337.39-25.2 337.36-26.95 337.32-28.2 337.27-29.44 337.27-29.83L337.27-29.83 333.65-30.32 333.56-31.88 340.54-33.89 341.47-33.2Q341.42-31.1 341.37-29.08 341.32-27.05 341.3-24.56 341.27-22.07 341.27-18.55L341.27-18.55 341.22-10.69Q341.22-7.81 341.3-5.49 341.37-3.17 341.47-2.49L341.47-2.49 344.64-1.81 344.54 0ZM368.12-3.42L368.12-3.42 371.2-2.64 371.2-1.03 364.85 0.54 364.12-0.1 364.17-3.17 364.02-3.22Q362.61-1.22 361.12-0.42 359.63 0.39 357.92 0.39L357.92 0.39Q354.65 0.39 352.45-1.64 350.25-3.66 350.25-7.71L350.25-7.71 350.25-11.91Q350.25-13.23 350.18-14.55 350.11-15.87 350.01-17.19L350.01-17.19 346.69-17.87 346.69-19.48 353.33-21.29 354.21-20.51Q354.11-18.99 354.06-17.29 354.01-15.58 354.01-13.72L354.01-13.72 353.96-8.35Q353.96-5.32 355.38-4.03 356.8-2.73 358.99-2.73L358.99-2.73Q360.31-2.73 361.68-3.42 363.05-4.1 364.07-5.76L364.07-5.76 364.07-11.43Q364.07-12.5 364.05-13.55 364.02-14.6 363.97-15.55 363.92-16.5 363.83-17.19L363.83-17.19 360.26-17.87 360.26-19.48 367.15-21.29 367.88-20.61Q367.83-19.24 367.81-18.19 367.78-17.14 367.78-16.09 367.78-15.04 367.78-13.67L367.78-13.67 367.78-10.21Q367.78-7.52 367.9-5.88 368.03-4.25 368.12-3.42ZM388.39-4.25L389.26-3.03Q388.34-1.42 386.73-0.51 385.11 0.39 383.36 0.39L383.36 0.39Q380.43 0.39 378.5-1.42 376.57-3.22 376.57-6.84L376.57-6.84 376.72-18.51 373.3-18.51 373.3-19.53 379.6-25.24 380.52-25.24 380.43-19.63 380.38-7.62Q380.38-5.08 381.48-3.86 382.57-2.64 384.58-2.64L384.58-2.64Q385.7-2.64 386.65-3.1 387.6-3.56 388.39-4.25L388.39-4.25ZM387.8-18.51L378.67-18.51 378.67-20.95 387.8-20.95 387.8-18.51ZM400.83 0L390.29 0 390.19-1.81 393.46-2.49Q393.51-2.69 393.53-3.17 393.56-3.66 393.61-4.74 393.66-5.81 393.66-7.71L393.66-7.71 393.66-10.94Q393.66-12.99 393.56-14.65 393.46-16.31 393.31-17.19L393.31-17.19 390.04-17.87 390.04-19.48 396.98-21.29 397.71-20.61Q397.56-19.09 397.49-17.63 397.42-16.16 397.42-14.21L397.42-14.21 397.42-8.06Q397.42-5.81 397.49-4.35 397.56-2.88 397.66-2.49L397.66-2.49 400.93-1.81 400.83 0ZM395.56-26.81L395.56-26.81Q394.29-26.81 393.41-27.64 392.53-28.47 392.53-29.69L392.53-29.69Q392.53-30.86 393.41-31.71 394.29-32.57 395.56-32.57L395.56-32.57Q396.83-32.57 397.66-31.71 398.49-30.86 398.49-29.69L398.49-29.69Q398.49-28.47 397.66-27.64 396.83-26.81 395.56-26.81ZM414.6 0.39L414.6 0.39Q411.43 0.39 409.06-0.98 406.69-2.34 405.37-4.81 404.05-7.28 404.05-10.45L404.05-10.45Q404.05-13.77 405.49-16.21 406.93-18.65 409.4-20.02 411.87-21.39 414.8-21.39L414.8-21.39Q417.82-21.39 420.07-20.04 422.32-18.7 423.59-16.28 424.85-13.87 424.85-10.64L424.85-10.64Q424.85-7.57 423.49-5.05 422.12-2.54 419.8-1.07 417.48 0.39 414.6 0.39ZM415.09-1.9L415.09-1.9Q416.75-1.9 417.97-2.91 419.19-3.91 419.87-5.69 420.56-7.47 420.56-9.77L420.56-9.77Q420.56-13.96 418.82-16.58 417.09-19.19 414.26-19.19L414.26-19.19Q411.62-19.19 410.04-17.02 408.45-14.84 408.45-11.18L408.45-11.18Q408.45-8.45 409.3-6.35 410.16-4.25 411.67-3.08 413.18-1.9 415.09-1.9ZM438.38 0L428.37 0 428.27-1.76 431.3-2.49Q431.35-2.83 431.37-3.42 431.4-4 431.44-5.03 431.49-6.05 431.49-7.71L431.49-7.71 431.54-11.47Q431.54-13.09 431.42-14.7 431.3-16.31 431.15-17.19L431.15-17.19 428.03-17.87 428.03-19.48 434.57-21.29 435.4-20.51 435.16-17.92 435.3-17.87Q437.01-19.73 438.67-20.56 440.33-21.39 442.28-21.39L442.28-21.39Q444.09-21.39 445.68-20.48 447.26-19.58 448.27-17.7 449.27-15.82 449.27-12.99L449.27-12.99 449.27-7.57Q449.27-5.81 449.34-4.39 449.41-2.98 449.56-2.49L449.56-2.49 452.59-1.76 452.44 0 442.63 0 442.53-1.76 445.36-2.49Q445.41-2.88 445.46-3.47 445.51-4.05 445.53-4.98 445.56-5.91 445.56-7.23L445.56-7.23 445.56-12.5Q445.56-14.7 444.8-15.99 444.04-17.29 442.92-17.85 441.8-18.41 440.62-18.41L440.62-18.41Q439.01-18.41 437.65-17.63 436.28-16.85 435.25-15.38L435.25-15.38 435.25-8.06Q435.25-5.76 435.33-4.39 435.4-3.03 435.5-2.49L435.5-2.49 438.52-1.76 438.38 0ZM459.42 0.49L459.42 0.49Q458.1 0.49 457.22-0.37 456.34-1.22 456.34-2.54L456.34-2.54Q456.34-3.37 456.73-4.03 457.13-4.69 457.83-5.08 458.54-5.47 459.37-5.47L459.37-5.47Q460.74-5.47 461.62-4.64 462.5-3.81 462.5-2.54L462.5-2.54Q462.5-1.22 461.62-0.37 460.74 0.49 459.42 0.49ZM470.84 0.49L470.84 0.49Q469.53 0.49 468.65-0.37 467.77-1.22 467.77-2.54L467.77-2.54Q467.77-3.37 468.16-4.03 468.55-4.69 469.26-5.08 469.96-5.47 470.79-5.47L470.79-5.47Q472.16-5.47 473.04-4.64 473.92-3.81 473.92-2.54L473.92-2.54Q473.92-1.22 473.04-0.37 472.16 0.49 470.84 0.49Z" opacity="1" transform="matrix(1,0,0,1,0,0)" fill="#ffffff" class="slogan-text-1" data-fill-palette-color="secondary" id="text-1"></path></svg></g></svg></g></svg></g></svg></g><g><svg viewBox="0 0 190.024971184172 161.0411697986416" height="161.0411697986416" width="190.024971184172"><g><svg xmlns="http://www.w3.org/2000/svg" xmlns:xlink="http://www.w3.org/1999/xlink" version="1.1" x="0" y="0" viewBox="2.6 18.098676931359034 187.50000000000003 158.90132306864098" enable-background="new 0 0 195 195" xml:space="preserve" height="161.0411697986416" width="190.024971184172" class="icon-icon-0" data-fill-palette-color="accent" id="icon-0"><g fill="#0745b3" data-fill-palette-color="accent"><path d="M53 118.7c27.9 0 50.4-22.7 50.4-50.4 0-0.9 0-2.1-0.2-3l17.1-19.5 23 21.1c0.5 0.5 0.9 0.7 1.6 0.5 0.5 0 1.2-0.2 1.4-0.7l25.1-27.9 5.6 5.2c0.5 0.5 0.9 0.5 1.4 0.5 0.2 0 0.5 0 0.5 0 0.7-0.2 1.2-0.7 1.4-1.4l5.9-20.2c0.2-0.7 0-1.6-0.5-2.1s-1.4-0.7-2.1-0.5L163.4 27c-0.7 0.2-1.2 0.9-1.4 1.6-0.2 0.7 0 1.4 0.7 2.1l5.6 5.2-23.7 26.5-23-21.1c-0.5-0.5-0.9-0.5-1.6-0.5-0.5 0-1.2 0.2-1.4 0.7l-16.2 18.3c-4.2-23.7-24.9-41.7-49.7-41.7C25.1 17.9 2.6 40.4 2.6 68.3S25.1 118.7 53 118.7zM181.3 25.6l-3.8 12.9-9.1-8.4L181.3 25.6zM98 68.3c0 13.6-6.1 25.8-15.7 34l-26-33.8 29.1-31.4C93.1 45.1 98 56.1 98 68.3zM55.6 23.3c9.8 0.5 19 4.2 26.3 10.3L55.6 61.7C55.6 61.7 55.6 23.3 55.6 23.3zM50.4 23.3v45l0 0v0.2c0 0.2 0 0.5 0.2 0.7 0 0 0 0.2 0.2 0.2 0 0 0 0.2 0.2 0.2l27.4 35.6c-7.3 4.9-15.9 8-25.3 8-24.9 0-45-20.2-45-45C8 44.4 26.7 24.7 50.4 23.3z" fill="#ffffff" data-fill-palette-color="accent"></path><rect x="101.8" y="93.9" width="15.7" height="22" fill="#ffffff" data-fill-palette-color="accent"></rect><rect x="122.6" y="69.9" width="15.7" height="46" fill="#ffffff" data-fill-palette-color="accent"></rect><rect x="143.5" y="75.1" width="15.7" height="40.8" fill="#ffffff" data-fill-palette-color="accent"></rect><rect x="164.4" y="55.9" width="15.7" height="60" fill="#ffffff" data-fill-palette-color="accent"></rect><path d="M48.5 154.8h-8.7v-8.7c0-2.6-2.1-4.5-4.5-4.5-2.6 0-4.5 2.1-4.5 4.5v8.7h-8.7c-2.6 0-4.5 2.1-4.5 4.5 0 2.3 2.1 4.5 4.5 4.5H31v8.7c0 2.6 2.1 4.5 4.5 4.5 2.6 0 4.5-2.1 4.5-4.5v-8.7h8.7c2.6 0 4.5-2.1 4.5-4.5C53 156.9 51.1 154.8 48.5 154.8z" fill="#ffffff" data-fill-palette-color="accent"></path><path d="M91.9 154.8H66.8c-2.6 0-4.5 2.1-4.5 4.5 0 2.3 2.1 4.5 4.5 4.5h25.1c2.6 0 4.5-2.1 4.5-4.5C96.4 156.9 94.5 154.8 91.9 154.8z" fill="#ffffff" data-fill-palette-color="accent"></path><path d="M180.1 154.8h-24.9c-2.6 0-4.5 2.1-4.5 4.5 0 2.3 2.1 4.5 4.5 4.5h24.9c2.6 0 4.5-2.1 4.5-4.5C184.5 156.9 182.7 154.8 180.1 154.8z" fill="#ffffff" data-fill-palette-color="accent"></path><circle cx="167.7" cy="148" r="4.7" fill="#ffffff" data-fill-palette-color="accent"></circle><circle cx="167.7" cy="170.5" r="4.7" fill="#ffffff" data-fill-palette-color="accent"></circle><path d="M136.9 145.7c-1.6-1.6-4.7-1.6-6.3 0l-7 7-7-7c-1.6-1.6-4.7-1.6-6.3 0-1.6 1.6-1.6 4.7 0 6.3l7 7-7 7c-1.6 1.6-1.6 4.7 0 6.3 0.9 0.9 2.1 1.4 3 1.4 1.2 0 2.3-0.5 3-1.4l7-7 7 7c0.9 0.9 2.1 1.4 3 1.4s2.3-0.5 3-1.4c1.6-1.6 1.6-4.7 0-6.3l-7-7 7-7C138.8 150.4 138.8 147.6 136.9 145.7z" fill="#ffffff" data-fill-palette-color="accent"></path><path d="M187.8 127.6H14.3c-1.4 0-2.3 1.2-2.3 2.3s1.2 2.3 2.3 2.3h173.5c1.4 0 2.3-1.2 2.3-2.3S189.2 127.6 187.8 127.6z" fill="#ffffff" data-fill-palette-color="accent"></path></g></svg></g></svg></g></svg></g><defs></defs></svg><rect width="395.52" height="101.33531461466492" fill="none" stroke="none" visibility="hidden"></rect></g></svg></g></svg>